<svg xmlns="http://www.w3.org/2000/svg" viewBox="0 0 401.92 998.07"><defs><style>.a,.b,.c,.d,.e{fill:#fff}.a,.b,.d,.e{stroke:#000;stroke-linecap:round;stroke-miterlimit:10}.a{stroke-width:5px}.b{stroke-width:4px}.d{stroke-width:4.5px}.e{stroke-width:3.5px}</style></defs><path d="M166.06 10.32C101.8-26.38 43.45 42 37.64 103.21c-4.19 36 1.31 73 13.9 106.34 0-.05-.13-.45-.15-.51C79.8 275.16-5 274.36.23 326.21c4.48 33.64 46.54 45.22 72.3 52.12 7.26 14.73 21.93 25.61 34.33 36.6 15.29 13 30.31 25.29 52.51 28.3 48.29 8.65 93.57-37.91 92.4-83.48 42.34-26.1 60.13-90.26 36.12-136-14.75-27.49-68.66-72.19-71-75.27-5.11-8.29.65-16.48.82-25.7 2.22-43.35-7.28-86.38-51.65-112.46zm8.24 866.01c-25.53 5.07-20.69 42-17.69 57.18 1.9 12.68 8.32 64.79 37.71 60.33s22.33-46.83 18.92-69.59c-2.97-21.33-10.05-55.5-38.94-47.92z"/><path class="a" d="M165.63 833.32c-21 6.84-17.39 18.4-12.54 36.84 4.29 14.86 6.61 29.23 8.64 43.92 1.56 10.39 5.25 41.73 26.51 38.55s17.25-26.63 14.44-45.3a341.39 341.39 0 0 0-10-49.78c-4.01-14.65-7.06-30.67-27.05-24.23z"/><path d="M91.43 873.77c-26.39-2-31.16 36.84-33 52.41-.93 6.57-3.71 23.31-2.68 39s5.93 30.28 20.61 32.58c29.39 4.6 35.62-40.23 39-64.36 3.28-21.51 6.64-58.52-23.93-59.63z"/><path class="a" d="M96.11 828c-31.88-2.46-20.5 39.2-24.76 60.52.31 18.71-16.35 57.42 11.65 66.09 30.7 2.72 26-47.29 30.3-69.57C112 865.88 125.33 828 96.11 828z"/><path d="M84.5 483.37c-53.4-6.78-52.82 31.33-53.94 52.83-1.15 24.31 7.5 103.66 7.62 128.88-.35 18.48 1.13 38.49 5.12 56.67 7.62 39 15 75.68 22.13 116.06.88 5.25 1.73 10.42 3 15.41 5.87 12.64 29.09 12.45 40.65 8.67s6.67-15.41 8.64-24.78c1.89-24.6.13-63.91-2.32-82.82-2.19-23.74-11.5-48.44-12.64-72.62.68-39.51 9.23-102.52 15.15-134.94 6.16-32.02 8.34-58.11-33.41-63.36z"/><path d="M147.12 480.78c44.17 13.84 38.44 44.22 26.13 73-10.45 27-45.49 88.05-51.2 122.57-.55 3.59-1.13 7.24-.33 10.81 5.25 22 17 45.64 26.51 65.33 9.68 20.14 31.14 66.6 36.87 86.47 4.83 14.32-33.95 34.28-42 23.33-21.36-33.59-59.21-84.83-72.87-124.42-20.45-46.11-12.86-80.59-1.45-128.23 7.35-31.37 16-63.36 20-80.65 8.04-34.47 18.36-61.39 58.34-48.21z"/><path class="b" d="M177.81 198.72c28.28 21.48 55.54 50.86 77.94 80.63 2.88 3.28 5 7.6 7.37 11 6 2.11 10.87-6.23 15.31-8.89 10.34-9.89 18.44-15.78 31.79-5.88 13.33 10.18 14.41 17.87 6.5 32.16-13.72 26.6-46.4 68.82-80.41 50.26-10.88-7-17.94-18.68-25-29.83a330.11 330.11 0 0 0-51-54.5"/><path class="c" d="M382.75 227.24C357.09 259.15 350.24 242 325.63 283c-6.48 9.65-23.75 9-28.92-1.21-4.09-10.18 2.47-21.4 8.32-29.67 8.14-11.92 22-22.49 25.62-34.68 4.06-11.34 22.67-11.42 26-17.21 8.93 5.13 22.63 15.05 26.1 27.01z"/><path d="M373.81 240.79c-7.06 8-17.53 11.16-25.81 17.42-13.25 9.28-15.91 31.11-33.69 33.66-7.48.55-16.47-2-19.91-9.27-8-28.08 26.62-43.9 34.43-67.21 5-11.78 21.09-9.63 26.91-18.18 11.2 6.52 24.32 15.21 28.47 27.8.71 2.41.39 2.23-.73 0-5.32-10.63-16-18.35-26.66-24.13-6.64 7.43-20.92 6.47-24.7 17.17-3.69 18.52-52.14 50.88-27.41 68.29 3.58 1.59 7.83 2.35 11.59 1 11.72-5.45 15.36-19.78 24.81-28 9.33-9.43 23.68-11.83 32.66-21.44 16.37-15.96 10.23-7.56.04 2.89z"/><path class="c" d="M353.93 203.72c8-10 11.07-23.63 6.24-35.56.58-3.86 6.07-.06 7.72 1.55 10.9 11.48 2.18 29.51-6.1 40.18"/><path d="M355.19 198.33c6.25-8.92 6.24-20.72 3.52-31.46 3-3 8.39.35 10.81 2.63 10.1 10 4 26.74-2.68 36.7-11.26 15.81 8.62-15.38 4.36-26.76-.9-4.81-4.06-10.86-9.11-12-.44 3.58 2.47 7.75 2 11.75 1.96 11.59-17.27 32.63-8.9 19.14z"/><path class="c" d="M360.08 209.58c9.88-11.66 16.3-28 11.26-42.29 2.63-4 8.62 1.28 10.2 4.33 7.32 15.14-4.36 32.51-13.67 44.23"/><path d="M362.18 203.46c7.67-10.59 11.11-23.64 7.55-36.47 1.77-3.77 7.42-2 9.93 0 11 9.07 5.11 26.42-.6 36.29-3 4.69-6.82 11.75-10 13.29 3.53-6.73 11.51-19.5 12.7-28.95 1.42-7.31.2-18.35-8.19-20.71-.67.09-.52 1-.38 1.63 9.81 20.96-23.03 51.38-11.01 34.92z"/><path class="c" d="M365.4 215.62c13.55-10.69 17.9-28 17.18-43.7 4-5.36 9.4 3.3 9.88 7.53 3.16 16.63-8.21 33.15-20.31 43.54"/><path d="M368.23 210.11c11.22-11.85 11.89-22.71 12.7-38.77 3.18-4.85 9.85-1.85 11.66 2.64 6.07 12.6.07 27.29-7.23 37.66-3.62 4.54-8.54 11.22-12.13 12.24 5.12-6.31 14.53-18.53 16.71-28.48 5.32-13.15-5.54-31.48-5.87-20.32 4.34 27.78-29.49 48.41-15.84 35.03z"/><path class="c" d="M371.35 224.53c11.22-9.87 17-26.78 19.16-40.12 6.15-13.36 11.23 5.72 8.59 12.43-2.57 13.5-10.92 25.54-20.75 34.84"/><path d="M373.7 219.18c8.14-8 12.86-24.77 15.48-36.73 8.23-11.39 14.29 3.09 12.38 11.47-.84 12.61-10.73 27.9-17.23 34.54-14.22 14.86 9.66-14.23 10.76-22.82 2.25-7.25 4.78-16.67.32-23.56-1.21-1.54-2.12.32-2.59 1.48-2.52 14.06-10.21 33.91-22.34 39.9-.23-1.16 1.75-2.18 3.22-4.28z"/><path class="c" d="M348.36 222.66c-1.09-5.82-3.89-11.12-4.57-16.82-1.46-6.23 6.55-12 1.47-17.19-11.83-5.81-17.26 27.66-15.51 35.35 1.39 10.27 21.91 11.12 18.61-1.34z"/><path class="c" d="M330.53 219.27c0-8.33.89-20.74 5.45-27.34 3.29-6.13 12-5.51 11.36 2.24-3.48 9.46-3.09 18.34-.1 28.75"/><path d="M328.75 214c.64-8.87 1.31-22 10.09-27.38 4.48-2.56 9.7 2 10.16 6.57a11.32 11.32 0 0 1-.41 4.31c-3 6.71-2.23 14.37-.38 21.15 2.75 13.82-8.46-14.56-3.47-21.09 4.22-13.33-7.39-8.5-10 .07-2.49 3.06-6.26 32.12-5.99 16.37z"/><path class="d" d="M132.47 172c86.46 19.07 77.15 147.64 72.76 215.35-3.37 40.09-4.87 82.79-17.14 117.79-11.68 23.94-57 25.61-82.59 26.27-24-.17-72.92-8.33-80-33-5.16-35.17-1.55-76.52-.55-115.23 2.88-47.31-.25-92.9 13.73-138 12.61-41.71 45.87-84.55 93.79-73.18z"/><path class="b" d="M40.63 240.37c-11.56 30.22-18.43 67-14.79 101.14 2.73 38.82 36.7 68.09 74.44 50 18.08-8.53 33.54-23 44.47-39.18 8.25-10.61 11.51-20.41-.6-29.74-11.33-8.35-17.71-9.84-28.27-2.34-7.82 4.35-19.4 15-28.32 8.2-2.45-3-1.47-8.94-.28-11.44a167.08 167.08 0 0 1 6.1-29.42"/><path class="c" d="M205.83 295.5c-7.72 5-19 14.07-28.16 14.21-9.52 8.6-14.46 20.64-26.2 29.52-13.75 12.27-33.9-5.38-24.65-20.66 8.94-15.28 23.85-25.91 29.84-42.4 8.21 12.81 23.59 5.07 32-1.43a182.54 182.54 0 0 1 17.17 20.76z"/><path d="M199.15 303c-5.78 3.54-12.29 8.78-19.39 8.17-12.62 10.88-19.88 33-39 34.46-7.5-.14-14.67-6.46-17.39-13.29-5-16.19 11.66-27.08 19.84-38.58 3.26-4.82 6.92-10.13 9.89-14.94 1.26-2.35 1.67-5.18 2.5-7.71 7.78 15.88 22 9.21 32.82.72 5.48 5.62 16.72 19.18 17.63 22.45a188.54 188.54 0 0 0-17.36-19.5c-8.15 7.26-22.53 14.49-31.41 4-1.18 4.52-4.66 8-6.91 12.14-6.25 12.05-19.19 20.3-23.25 33.67-2 6.53 2.47 13.14 8.34 15.86 17.64 5.45 29.47-22.28 41.14-31.48v.07c7.66 1.79 45.92-22.43 22.55-6.04z"/><path class="c" d="M196.44 289.81c7.49-4.22 10.13-13.88 16.37-18.82 6.6-.77.85 12-.35 15.3a27.11 27.11 0 0 1-10.8 12"/><path d="M197.8 286.38c5.57-4.52 8.26-11.74 13.48-16.59 9.93-4.33 2.78 17.94.48 21.17-2.07 3.22-6.06 8.55-9.29 8.51 4.76-5.44 10.57-14.69 12.21-22.84 2.15-9.07-4.82-.81-6.62 2.21-2.3 3.23-5.81 7-8.24 8.36-2.55 1.72-6.4 2.35-2.02-.82z"/><path class="c" d="M192.69 286.25c9.78-6.08 14.46-19.41 22.57-26.22 12-4.73-1.91 15.47-3.29 19.23a42.56 42.56 0 0 1-13.78 15.35"/><path d="M194.78 282.11c6.7-5 12.29-17.72 19.54-23.65 6.72-4.24 8.9 4.22 5.27 8.85-4.09 6.93-6.64 14.94-11.7 21.15-2.35 2.51-6.29 7.37-8.84 7.23 1.06-1.66 5.75-6.65 7.65-9.71 4.26-7.25 9.94-16.22 12.18-24.77-2.87-1.31-5.66 3.38-7.44 5.16-5.17 6.76-11.51 16.84-19.43 18.69-.17-1.06 1.45-1.49 2.77-2.95z"/><path class="c" d="M188.53 282.39c10.89-8.66 15.56-22.76 25.33-32.28 6.12-6.34 13.63-2.32 6.76 5.56-9 11.35-14.76 25.63-26.22 34.79"/><path d="M190.88 277.56c8.39-5.82 22.17-43.45 34.45-29.13 1 6.37-6.08 10.59-8.8 15.7-4.27 6.06-8.18 13.81-12.52 19.23-2.77 3.29-5.53 6.86-8.64 8.4.66-2.22 6.54-8.54 8.67-12.58 3.88-6.07 7-12.41 11.6-19.28 1.87-3.36 5.61-6.82 5.73-10.8-4.28-1.24-8.08 4.45-10.75 7.18-6.91 8.37-13.4 21.16-22.82 24.94-.12-1.22 1.61-1.83 3.08-3.66z"/><path class="c" d="M182.84 279c11.47-7.67 16.43-21.47 23.67-32.4 4.31-7.22 12.66-5.26 8.16 3.79-6.32 13.36-13.45 28.35-26.11 36.82"/><path d="M185.43 274.39c9.38-7.95 13.58-21 20.85-30.76 2.26-3.2 7.86-4.56 10.82-1.35 4.18 6.59-9 22.88-11.93 29.74-2.16 6.47-24.93 26.21-10.51 10.22 2.83-1.92 25.51-39.58 17.31-38.21-10.79 9-15.55 29.56-29.83 33.75-.05-1.16 1.72-1.66 3.29-3.39z"/><path class="c" d="M156.62 280.28c-.74-7.58 5.77-39.41 17.15-30.54 1.19 1.84.63 3.93-.13 5.81-6.36 8.83-.87 19.28.26 29-.24 11.26-9.68 6.19-14.32.64-1.47-1.42-3.08-2.79-2.96-4.91z"/><path class="c" d="M157.75 280.62c-.51-9.68-.26-22.11 6.05-29.76 4.68-6 13.24-2.88 10.08 4.89a32.27 32.27 0 0 0-1.67 23.93"/><path d="M155.82 276.75c-.15-9.76.43-24.76 10.55-30.28 4.79-2.82 10.3 2.17 9.61 7.26-1.63 7.16-5.39 14.8-3 22 2 10.42-3.24-4.49-3.06-7.85-1.51-5.82 4.72-14 2.49-17.71-14.75-6.92-15.32 43.32-16.59 26.58z"/><path class="e" d="M126.1 174.43c-23.73-.89-34.15 23.38-14.65 35.68 32.94 17.23 67.06-37.21 14.65-35.68z"/><path class="e" d="M127.74 135.67c-17.64-2.32-18.52 14.11-19.5 26.49-.54 10.5-2.55 27.86 3 34.15 6.9 11 35.32 4 33.64-10.44.87-8.62-2.07-17.2-1.85-25.91-.36-10.96-.49-22.6-15.29-24.29z"/><path class="c" d="M83.24 91c-9.81-22-23.35-3.08-20.63 15.57-.23 13.23 12.47 30.2 19.09 11.43"/><path d="M83.19 84.63c-3.1-6.22-11.33-9.81-16.73-3.73-9.91 11.61-9.69 39.35 3.76 48 6.44 3 14.1-4.2 13.4-10.35-1.41 1.5-3.11 4.84-5.44 6-16.06 7-18.22-44-2.9-41.76 4.32.32 13.9 13.42 7.91 1.84z"/><path d="M70 97.16c2.31-7.73 6.32-.2 6.56 4.1.76 2.5-.64 5.23.44 6.57 7.15-7.27-2.74-28-8.22-13.27-.5 1.9.12 6.06 1.22 2.6z"/><path class="c" d="M181.23 113.05c12.35-8.57 23.88 2 14.28 16.32-3.69 8.47-20.4 15.15-21.06 2.65"/><path d="M185.85 113.48c22.22-7.85 3.93 32.6-8.26 21.12-2.11-7.55-5.35 6.51 6.75 5.33 10.22-1.78 19.28-13.71 16.49-24.06-2.34-7.85-12.76-8.56-17.55-2.94-2.35 2.67.57 1.55 2.57.55z"/><path d="M183.26 125.37c.7-2.91 4.75-7.91 8.31-6.3 1.29 1.29-.07 6.43 2.43 2.22a3.87 3.87 0 0 0-.87-4.46c-3.53-2.93-9.08.18-10.63 3.6-1.36 1.51-.72 8.23.76 4.94z"/><path class="e" d="M164.92 22.66C113.45.18 73.77 59.91 77.22 106.14c-.34 58.43 46.78 92.3 90.78 44.56 28-34.46 46.93-103.76-3.08-128.04z"/><path d="M68.91 85C73.73 63.26 83.07 39.44 99 23c17.68-17 44.08-24.82 65.81-13.62C210 28.72 210.52 73 197.4 114.41c-34.07-9-70.26-41.15-63.34-81.56C119.58 54.48 99.75 89.43 68.91 85z"/><path d="M107.74 113.89c-10.85-2.1-6.11-22.41 4-19.94 10.16 2.27 6.13 21.76-4 19.94zm41.04 7.11c-10.67-1.74-6.68-20 3.54-17.48 10.09 2.23 6.62 19.34-3.54 17.48zm-44.12-42.42l19.68 5.35c5 .33-6.09-6.39-8.91-6.66-2.62-1.34-15.35-1.08-10.77 1.31z"/><path d="M100.15 98.74c5.26-4.36 18.56-3.08 19.28 4.59 6.49-10-15.41-15-19.86-6.62-.98 1.12-.92 4.01.58 2.03zm42.36 8.32c4.81-5.27 16.42.73 19.32 5.6 2.81-8.28-16.62-15.84-20.5-7-.6 1.4.41 3.69 1.18 1.4zm6.35-16.26l19.68 5.34c4.88.43-6.3-5.9-9-6.2-2.63-1.28-15.25-1.4-10.68.86zm-21.33 1.41c.4 12-7.14 21.71-11.28 32.37-1.09 6.68 4.55 13.26 11.07 13.31 5.41 0-.62-1.42-2.25-2.35a10 10 0 0 1-5.69-10.17c.81-3 2.76-5.29 4.3-8.22 4-7.16 6.35-15.51 5.53-23.58-.46-5.02-1.7-6.29-1.68-1.36zm-13.36 54.46c4.06 9.41 20.42 8.72 24 0-18.17 9.78-26.73-7.28-24 0z"/></svg>