<svg xmlns="http://www.w3.org/2000/svg" viewBox="0 0 439.82 589.47"><defs><style>.a,.b,.c,.d,.e{fill:#fff}.a,.b,.d,.e{stroke:#000;stroke-linecap:round;stroke-miterlimit:10}.a{stroke-width:5px}.b{stroke-width:4px}.d{stroke-width:4.5px}.e{stroke-width:3.5px}</style></defs><path d="M188.32 17.1c-58.87 47-46.26 109.83-5.14 158.09 7.52 11.69 15.44 21.42 14.86 34.35-6.36 19.81-42.2 20.68-59 18.52-18 46.79 17.37 79.31 59.3 87.31 20.53 64.05 164.83 82.47 178.7 5.09-.57.69 28.53-8.32 36.64-16.45 25.61-31.08 33.73-79.23 18.44-117-16.18-42.91-49.38-52.41-80-80.31-20.6-17-29-54.57-50.26-75.38C272.18.26 227-13.35 188.32 17.1zM298.36 515c-4.15 6-6 12.19-9.24 17.3.51 19.83 38.69 57.57 60.47 57.21 18.69 0 31.28-23.92 20.53-39.49-12.4-20.02-51.19-65.28-71.76-35.02z"/><path class="a" d="M265.79 503.18c.48 25.09 8.27 18.71 23.48 28.95 12.83 12.89 31.49 45.32 53.12 26.44 19.82-21.66-10.66-37-21-52.76-11.81-15.42-56.02-35.23-55.6-2.63z"/><path d="M263.3 443.12c-9-6.76-18.36-10.44-27.13-14.53-11.51-5.56-15.9-9.28-27-6.53-14.14 3.11-19.73 4.48-37.73 7.63-28.43 4.62-65.12 6.24-94.12 2.66-3.2 10.1-5.42 22.07-10.72 31 2 9.56.2 21.84-.13 32.62A1918.41 1918.41 0 0 1 279 533c14.17-2.06 41.54-27.17 24.44-41.32-28.74-18.52-82.27-34.76-110.94-42-40.66-9.35-83.19-12.5-124.11-19.41a33.92 33.92 0 0 0-10.12 1.07c-29.92 7.51-33.42 49.43-5.69 62.1 33.26 11.63 70.64 15.76 105.15 18.84 40 1.32 76.53 5.17 106.59-21.24 14.99-13.22 17.14-36.52-1.02-47.92z"/><path d="M134.1 498.28c-5.27-10.31-15.4-8.24-24-6.08-10.69 2.32-23.39 14.14-28.45 18.8-11.36 9.42-42.85 37.75-25 58 21.94 29.93 74.07-19.93 84.45-40.79a26.8 26.8 0 0 0 2.4-10.15c-3.34-6.38-5.3-13.17-9.4-19.78z"/><path class="a" d="M170.13 504.34c15.43-21.49-11.38-32.72-30.27-28.77-12.56 1.9-21.39 10.63-29.46 19.52-10.4 11.07-16.71 13.62-26.25 27.16-4.35 7-6.27 15.36.68 23.57 13.87 16.42 29.77 2.36 42.37-9.34 6.83-6.3 12.63-12 18.39-18.11 1.9-2.18 4.75-1.56 7.24-1.55 7.95.09 12.37-4.91 17.3-12.48z"/><path d="M258.43 458.6c8.49-10 21.44-15.43 29.05-25.36.25-1.39 1.35-1.46 3.39-1.69 24.23-.53 54.65-.79 80.83-5.72 5.24 10 10.66 24.71 18.55 30.32-4.56 7.81-3.45 23.5-3.92 34.28-71.44-.33-152.83 28.75-224.09 26.35-16.23-1.31-19.89-44.95-8.58-47.23 48.57-13.61 118.67-34 168.91-38.16 17.16-2.26 47.26-11 67.56-11.19a39.74 39.74 0 0 1 13.45 2.8c26.2 10.18 30 46.75 7.18 62.75-26.95 17.41-95.91 36.87-126.23 35-38.37-2.75-61.53-31.5-26.1-62.15z"/><path class="b" d="M227 195.54c-52.45 43.75-41.68 105-55.76 163.56a.16.16 0 0 1 .12 0 4.31 4.31 0 0 1-.61 2.93c-15.23 12.46-41.32 3.76-42.46 29.43-.78 7.46.87 17.13 7.42 20.91 11.46 5.1 28.65 6.14 43.09 4.2 20.39-2.25 41.82-15.64 49.35-36 18.17-35.38 11.36-81.29 29.37-115"/><path class="c" d="M57.79 374.49c7.64-2.44 24.28-.46 33.39 1.74 4.7 1.73 8.43 5.51 13.45 5.72 10.44.52 21-4.3 31.66-4.36 18-2 24.56 23.61 8.38 31.05-15.66 8.74-35.71 3.09-50.9 11.44 1.39-17.61-20.85-15.35-32.29-15.26-1.63-4.97-4.61-22.96-3.69-30.33z"/><path d="M69.92 376c7.67.61 15.72.78 23 3.46a24 24 0 0 0 20.38 4.41c7.89-1 15.68-3.88 23.74-3.77 11.65-1.43 19.73 12.79 12.32 21.88-14.19 13.85-36.56 7.38-53.71 14.25-2.13-15.3-21.18-14.23-32.86-13.94-2-6.82-3.78-21.17-3.63-25.38 0-2.76-.11-3.28-.33-1.8-1.09 7.29.5 21.34 2.61 29.81 12.09.23 35.34-.25 30.81 18 16.16-10.47 39.24-2.07 55.69-13.48 7.51-4.67 9.47-14.92 6.46-23-7.3-18.74-30-8.61-44.26-6.43-7.33 2.1-13.06-2.67-19.47-4.88-10.45-1.45-22.79-3-32.56.88-.31.21-.33.32 0 .32a56.43 56.43 0 0 1 11.81-.33z"/><path class="c" d="M74.71 376.94a41.75 41.75 0 0 0-22.85.44c-4.72.73-14.93 9.08-6.47 11.38 8.94-.39 18.13-4.45 27.18-2.12"/><path d="M71.19 374.1c-9.54-1.38-32.53 0-29.25 14.32 1.9 5.15 14.78-.25 19.32-.17a47.92 47.92 0 0 1 10.53.06c1.73-1.7-8.3-3.19-10.41-2.92-4-.58-16.48 3.31-18.13.46 2.39-11.98 43.33-8.78 27.94-11.75z"/><path class="c" d="M74.48 379.9a54.42 54.42 0 0 0-28.7 5.1c-4.74 2.2-16 9.86-9.28 13.5 11.77-2.61 23.78-10.19 36.5-8.68"/><path d="M70 377.67c-12.77.41-30 3.79-36.47 16.48-1.55 4.76 2.58 7.51 6.77 5.48 7.1-2.65 14.93-6.15 22.26-7.25 3.18-.65 7.53-.59 10.22-1-1-1.83-8.83-1.69-12.3-1.3-3.64-1.19-27.27 10.21-24.53 5C43 380 88 378.43 70 377.67z"/><path class="c" d="M74.93 385.52c-13.78-.13-28.21 4.44-38.83 13.17-2.8 2.14-10.38 10.48-3.78 11.3 13.08-5.48 26.43-15 41.48-14.52"/><path d="M69.63 383.69c-13.43 1.38-27.2 6.19-37 16.11-3 2.66-7.36 10.56-1.18 12.05 7.69-1.26 13.92-7.4 21.32-9.7 6.72-4.12 33-5.6 13.66-6-12.79-.12-23.55 8.62-35.15 12 1-6.43 9-10.62 14.06-13.93 8-5 21.51-8.26 29.54-10.05.16-.07.27-.15 0-.25-1.44-.53-2.57-.42-5.25-.23z"/><path class="c" d="M75.91 392.16a45 45 0 0 0-36.17 11.65c-2.85 2.29-10.66 11.88-3.57 12.36 11.68-6.33 23.75-16.26 38.14-14.14"/><path d="M70.78 389.76a47.33 47.33 0 0 0-32.65 13.34c-4.43 3.07-10.93 16.6-.58 14.48 10.75-6.65 22.92-15 35.91-13.8 2.76-1.71-11-2.11-12.67-1.18-7.9 1.29-15.73 6.37-22.5 10.74-8.23 4.54.12-6.84 2.59-8.5a46.83 46.83 0 0 1 11.48-7.93c6.19-3.52 17.72-5.51 23.58-6.14.18-.06.28-.14.07-.25a13.84 13.84 0 0 0-5.23-.76z"/><path class="c" d="M96.38 417.05C92 423 85 427.64 78.58 431.19c-4.74 4.13-17.43 3.82-12.3-4.52 16.73-9 11.45-12.33 21.29-25.34 7.51-6.53 10.06 4.19 9.83 10.13.13 2.01.42 4.08-1.02 5.59z"/><path class="c" d="M84.66 407.21a33.65 33.65 0 0 1-16.08 17.32c-6.56 3.77-3 11.89 4.27 10.13 9.56-2.06 17.22-11.16 23-18.62"/><path d="M81.53 409.84c-3.6 7.9-9.82 9.76-15.75 15.07-3.73 4-1.92 11.81 4.18 11.86 8.28.46 15.79-6.64 21-12 6.26-6.89 8.3-11.32-.48-2.59-3.52 3.9-23.18 18-23.87 6.4 7.84-6.46 15.45-11.27 17.3-22.15-.74-.22-1.38 1.99-2.38 3.41z"/><path class="d" d="M271.77 170.29c-80.8 10.76-82 92.35-76 154.47.37 9.17-.76 18.27-2.15 27.32-2.87 27.68-15.32 67.1 14.11 83.88 42.79 24.49 94.93-4.09 140-3 11 2.1 24.69-63.35 26-74 8.84-74.24.04-199.15-101.96-188.67z"/><path class="b" d="M341.35 194.67C383.7 233 432.52 377 370.2 415.27c-13.33 7.84-30.9 10.78-45.35 10.4-14.77-1.53-25.05 1-32.37-9.15-5-9.24-1.66-24.86 7.21-30.28 8.42-5.29 41.79-5.8 41-22.24-.1-33.77-11.54-71.45-27.23-98.72"/><path class="c" d="M246.33 394c-9.37 1.75-11.85 12.61-18.72 17.34-4.2 2.58-7.55 3.3-9.33 6.95a4.33 4.33 0 0 0 4.66 5.87c8.74-.66 18.53-9.61 27.51-10.81 7.62-4.03 7.19-22.54-4.12-19.35z"/><path class="c" d="M246.77 395.14c-7.11 1.39-11.5 8.11-16.31 12.62-3.15 2.92-8.48 4.85-10.66 7.55-6.55 9.21 5.52 11.41 12.54 6.4 4.72-2.07 10.26-7.57 15.21-9"/><path d="M240.57 395.63c-4.4 2.68-7.23 6.92-10.94 10.36-3.39 3.21-8.29 4.45-11.21 8.26-2.5 2.93-2.34 9.13 1.3 11.23 9.33 3.77 18.89-6 26.06-10.07 2-.94 3.36-1.62.77-1.73-6.83 1.66-13.73 8-21.32 8.88-5.57 1.07-8.18-3-3.39-6.74 4.83-3.52 10.1-6.65 13.25-11.87a31.9 31.9 0 0 1 11.32-10.12c-.75-.96-4.5 1-5.84 1.8z"/><path class="c" d="M217.54 384.25c23.13-3.18 44.22 11.47 65.61 7.5 9.26-1.27 18.85-4.94 28.31-3.37 9.46.63 16.31 14.39 12 22.72-3.76 7.2-12.35 10.06-19.88 11.89-10.54 2.78-24.75 2.84-33.88.33-5.77-1.17-10.31-2.16-13.95-.73-11.83 4.59-16.72-6.5-22.7-6.53-9.98-.06-12.25-20.33-15.51-31.81z"/><path d="M232.35 387c13 1 25.94 6.79 39.11 8 14.15 1.25 28-7 42-3.62 7.27 2.08 11.16 12.17 7.82 18.73-10.87 13.67-33 13.75-49 11.25-16.73-5.51-20.16 4.23-30.37-3.29a21.85 21.85 0 0 0-11.22-5.07c-7.58-5.89-7.73-18.77-10.57-26.74a15.43 15.43 0 0 0-.84-2.39c-.31 2.26 1.61 11.35 2.55 16.13 1.51 6.37 4 16.63 12.39 16.83 6.89 3.88 13.77 11.24 22.53 6.95 10.59-1.05 21.07 4.84 32 3.59 13.28-1.28 31.32-2.65 37.41-16.6 2.58-8-1.2-17.75-8.15-22.29-15.76-8.05-32.84 4.67-49.31 2.46-16.18-2.32-34.75-9.07-50.62-5 1.86 1.06 7.76-.18 14.27 1.06z"/><path class="c" d="M225.08 386.31c-10.79-.26-22.22 3.23-30.5 9.9-4.9 2.63-11.78 15.47-2.07 13.77 9.34-5.35 20.09-14.15 32-13.7"/><path d="M219.25 384.5c-10.48.94-29.1 7.36-33.09 20.15-1.07 3.61 2.68 8.45 6.57 7.16 9.19-4.39 17.58-12.29 27.85-13.26 1.89-.49 3.64.06 3.83-.9-8.57-2.74-19.73 2.51-27.77 7.87-17.27 10.88-1.4-10.63 5.41-12.58 6.16-4 17.21-6.81 22.89-8 .14 0 .33-.17 0-.25-1.63-.49-2.87-.39-5.69-.19z"/><path class="c" d="M226.08 391.24c-12.29.92-26.51 6.84-34.65 15.32-4.42 4.18-12.09 16.53-3.44 16.5 11.28-9 22.83-20.77 38.34-21.82"/><path d="M219.24 390.2c-13.51 2.79-28.73 10.43-35.2 23.57-2.33 3.75-2 11.5 3.85 11.16 5.09-1.71 8.05-6.6 12.29-9.65a55.13 55.13 0 0 1 25.55-12.14c2.18-1-3.11-1.06-7.3-.24-10.43 1.86-20.12 8.68-27.92 16.16-8.14 7.44-3.94-4.34-.93-7.68a44.85 44.85 0 0 1 10.1-9.82c6.79-5.37 19.61-9.74 26.13-11.68.16-.07.33-.2 0-.26-1.94-.26-3.33.01-6.57.58z"/><path class="c" d="M230.26 399.15c-12-1.71-25.15 2.93-33.17 11.78-4.31 4.38-10.48 15.82-2.4 15.84 9.83-7.92 19.92-19.81 34.22-17.77"/><path d="M223.88 396.84c-27.42-.61-45.48 34.26-27.4 31 7.57-6.69 18-17.13 28.05-16.94 2.05-.41 3.84.35 4.15-.59-10.88-4.18-23.1 3.68-30.8 11.71-4.37 4.58-7.13 4.57-4.55-2.32 2.3-5.48 6.93-10.37 11.48-13.59 6.48-5.25 18.92-8 25.4-8.39.17 0 .39-.13.06-.25-1.82-.64-3.21-.68-6.39-.63z"/><path class="c" d="M233 403.46c-10.37.73-22.37 5.17-29.41 12.22-4.32 3.94-10.3 13.91-2.53 14.76 9.81-6.4 19.36-16.33 32.2-17"/><path d="M227.16 402.2c-11.77 2.22-26.21 8.78-30.82 21.14-1.89 4 1.6 10.5 6.37 8.32 7.76-5.47 17.7-14.29 26.55-15.53 1.91-.68 3.78-.3 3.92-1.29-8.35-1.93-20.35 4.13-27.22 10.06-15.73 13-2.28-10.53 4.73-13.09 4.63-4.94 33.48-12.17 16.47-9.61z"/><path class="e" d="M258.24 170c-18.29 6.5-24.54 25.35-8.37 35.45 34.42 17.9 63.44-58 8.37-35.45z"/><path class="e" d="M246.46 134.81c-21.35 6.55-9.75 24.74-5.92 41 2.73 9.63 6.68 16.53 11.65 19.6 8.49 5.57 21.58-3.37 26.12-10.62 4.61-8.44.14-15.53-4.58-24-6.35-11.28-9.52-31.58-27.27-25.98z"/><path class="c" d="M188.64 112.48c-17.62-15.36-22.41 6.79-13.25 21 6.15 13.77 23 19.19 21.91 2.75"/><path d="M186.21 107.06c-5.06-3.85-13.57-4.45-16.51 2.52-5.56 14 5.51 37.68 20.78 40.12 6.71.35 11.63-8.35 8.78-13.75-.79 1.82-1.25 5.33-3 7.12-12.06 11.73-32.95-30.48-18.1-34.63 3.96-1.35 17.98 6.29 8.05-1.38z"/><path d="M178.83 122.77c-.9-7.51 5.82-2.52 7.59 1 1.57 1.84 1.33 4.75 2.8 5.44 4-8.82-13.08-23-12.53-8.24.31 1.88 2.46 5.17 2.14 1.8z"/><path class="c" d="M287.43 94.28c8.41-13 22.91-6.9 19.5 9.5-.45 10.38-13.36 21.44-18.44 10.47"/><path d="M291.85 92.87c17.53-16 16.26 28.75.48 22.61-4.68-6.25-2.65 8 8.28 2.45 8.89-5.53 12.63-20.26 6-28.76-5.19-6.27-15.07-2.72-17.29 4.2-1.17 3.36 1.09 1.18 2.53-.5z"/><path d="M294.07 104.77c-.43-2.92 1.35-9.14 5.22-9 1.68.65 2.58 5.89 3.14 1.07a3.94 3.94 0 0 0-2.57-3.74c-4.34-1.3-8.33 3.67-8.34 7.4-.72 1.92 2.48 7.88 2.55 4.27z"/><path class="e" d="M238.66 22c-55.55-7.31-71.55 65.7-49.88 105.72 22.68 52.65 76.8 62.73 100.51 6.13C303.7 91.7 291.56 28.14 238.66 22z"/><path d="M173.15 112.79c-4.66-25-5.32-56.66 9.4-79C193.63 16.17 214.68 2 235.4 9.93c45.52 13.48 62.33 31.36 67.45 79.24-33.33 4.43-80.75-7-90-47.95-5.04 24.41-9.62 64.4-39.7 71.57z"/><path d="M219.91 123c-10.34 2.51-14.28-17.18-3.79-18.85 10.2-1.87 13.88 16.72 3.79 18.85zm40.64-9.09c-10.32 2.53-13.88-15.3-3.41-17 10.19-1.91 13.54 14.84 3.41 17zm-56.97-20.35l20.17-3c4.35-.63-3.35-3.36-10.79-2.37s-13.73 5.99-9.38 5.37z"/><path d="M207.2 112.78c3.3-5.76 15.76-9.8 19.53-3.34 2-11.38-19.94-7-20.83 1.8-.49 1.38.68 3.76 1.3 1.54zm42.25-8.88c2.49-6.54 15.35-5.7 20-2.45-.37-8.5-21.54-7.58-21.61 1.61-.02 1.53 1.78 3.16 1.61.84zM249 87.1l20.18-3c4.34-.63-3.3-2.93-10.74-1.94s-13.82 5.57-9.44 4.94zm-19.08 9.51c5.05 10.32 1.8 21.71 1.82 32.61 1.52 6.83 9.86 10.12 15.82 7.47 3.62-1.72-2.29-.77-3.63-1-4.57-.1-9.88-4.15-9-9.21 2.15-10.56 2.27-25-5.76-32.95-.65.47.36 1.7.75 3.08zm7.73 52.85c7 6.91 22.12.57 22.33-8.59-13.1 15.13-27.56 3.18-22.33 8.59z"/><path class="c" d="M320 436.85H190a5 5 0 0 1-5-5c-6.61-11 133.58-2.45 135-5 6.43-.09 6.49 10.08 0 10z"/><path d="M320 439.85H190a8 8 0 0 1 0-16h130c10.32-.15 10.39 16.15 0 16zm-130-10c-2.54 0-2.61 4 0 4h130a2 2 0 0 0 0-4z"/><path class="c" d="M201.13 436.85h-160a7 7 0 0 1-6.34-5l-31.62-118c-.73-2.75.91-5 3.66-5h160a7 7 0 0 1 6.34 5l31.62 118c.74 2.75-.91 5-3.66 5z"/><path d="M201.13 439.85h-160a10.05 10.05 0 0 1-9.24-7.23l-31.61-118a7 7 0 0 1 1.08-6.19 6.81 6.81 0 0 1 5.47-2.58h160a10 10 0 0 1 9.24 7.22l31.62 118a6.75 6.75 0 0 1-6.56 8.78zm-194.3-128c-3.09.07 31.58 118 30.86 119.22a4.06 4.06 0 0 0 3.44 2.78c.93-.47 160 .61 160.71-.24.7-1.07-31.63-117.89-31.56-119a4.09 4.09 0 0 0-3.45-2.77z"/><path d="M116.08 371.85c4.74 25.73-30.31 19-34.19 0-4.74-25.74 30.31-19.05 34.19 0z"/></svg>