<svg xmlns="http://www.w3.org/2000/svg" viewBox="0 0 476.15 1051.77"><defs><style>.a,.b,.c,.d,.e{fill:#fff}.b,.c,.d,.e{stroke:#000;stroke-linecap:round;stroke-miterlimit:10}.b{stroke-width:5px}.c{stroke-width:4px}.d{stroke-width:4.5px}.e{stroke-width:3.5px}</style></defs><path d="M466.16 41.59C459 39.87 394.68-5.47 387.78 2.91l-67.63 38.68a14 14 0 0 0-7 12.9v86a12 12 0 0 0 12 12h136a12 12 0 0 0 12-12v-86a14 14 0 0 0-6.99-12.9z"/><path d="M461.15 155.49h-136a15 15 0 0 1-15-15V53.64A16.91 16.91 0 0 1 318.66 39c94.46-52 54.57-52 149 0a16.9 16.9 0 0 1 8.5 14.65v86.85a15 15 0 0 1-15.01 14.99zm-68-151a7.88 7.88 0 0 0-3.88 1L321.63 44.2c-11.12.72-3.27 89.85-5.48 96.29a9 9 0 0 0 9 9h136a9 9 0 0 0 9-9V53.64a10.9 10.9 0 0 0-5.48-9.44L397 5.52a7.89 7.89 0 0 0-3.85-1.03z"/><path class="a" d="M451.15 122.49c-151.41-7.18-126.28 36.33-128-98a12 12 0 0 1 12-12c151.42 7.18 126.29-36.34 128 98a12 12 0 0 1-12 12z"/><path d="M451.15 125.49c-151-7.19-130.2 36.68-131-101a15 15 0 0 1 15-15c151 7.18 130.21-36.69 131 101a15 15 0 0 1-15 15zm-116-110a9 9 0 0 0-9 9v86a9 9 0 0 0 9 9h116a9 9 0 0 0 9-9v-86a9 9 0 0 0-9-9z"/><path d="M443.15 45.49h-100a3 3 0 0 1 0-6h100c3.85-.06 3.92 6.06 0 6zm0 15h-100a3 3 0 0 1 0-6h100c3.85-.06 3.92 6.06 0 6zm0 15h-100a3 3 0 0 1 0-6h100c3.85-.06 3.92 6.06 0 6zm0 15h-100a3 3 0 0 1 0-6h100c3.85-.06 3.92 6.06 0 6z"/><path class="a" d="M466.16 70c-7.29 1.78-71.37 47-78.38 38.68L320.15 70a13.87 13.87 0 0 1-7-12v82.54a12 12 0 0 0 12 12c175.14-7.31 145.9 36.22 148-94.54a13.88 13.88 0 0 1-6.99 12z"/><path d="M461.15 155.49h-136a15 15 0 0 1-15-15V58c0-3.88 6-3.91 6 0a10.93 10.93 0 0 0 5.48 9.45c4.19.68 72.38 45.87 75.41 38.67l67.63-38.72a10.93 10.93 0 0 0 5.48-9.4c-.1-3.88 6.09-3.91 6 0v82.54a15 15 0 0 1-15 14.95zm-145-84.64v69.64a9 9 0 0 0 9 9h136a9 9 0 0 0 9-9V70.85c-99.53 54.85-54.6 54.71-154 0z"/><path class="a" d="M337.15 137.88c67.91-51.21 44.24-51 112 0"/><path d="M449.15 140.88C379.41 93.23 410 86.53 339 140.26c-3 2.41-6.8-2.43-3.65-4.76l46.89-36a18 18 0 0 1 21.86 0l46.9 36a3 3 0 0 1-1.85 5.38zM193 67c74.15-1.67 96.94 82 79 140.9-5.59 20.41-13.13 39.66-21.59 58.83-19.31 49.54 3.9 63.05 34 98.6 14.82 17.18 10.66 49.78-8.29 61.39C260 437.9 232 443.79 214.94 446c-9.19 13.26-25.26 20.61-37.94 30.79-16 12.23-30.35 25.64-53.23 26.94-49.69 3.81-90.39-47.6-85-94.86-40.5-30.25-53.64-101.43-18.21-140.73 13-15 30.31-26.11 44.26-40.47 8.43-8.25 16-19 22.39-29.68 9.06-12.29 7.53-28 11-42.22C109.59 110.55 138.8 68.62 193 67zM96.54 926.42c27.9-.65 28 40.9 27.69 56.65.16 13.52 1.67 68.7-28.09 68.7s-29.07-45.07-29.29-69.16c-.18-21.96.27-56.4 29.69-56.19z"/><path class="b" d="M94.84 880.38c22.54 1.59 21.18 14.91 20.91 34.48-.57 15.68.3 34.57.35 48.8.17 11.11 1.35 44.28-20.17 44.36s-21.09-24.87-21.33-44.6c-.18-17.22-.95-35.1-.28-51.62.48-15.8-.44-32.8 20.52-31.42z"/><path d="M195.82 929.6c26-3.17 30.92 26.19 37.29 44.3 5.92 19.26 21.9 57.38-3.14 69.67-29.75 12-44.83-32.31-51.68-52.71-7.17-20.95-13.54-56.37 17.53-61.26z"/><path class="b" d="M186.24 886.63c31.17-6.74 25.29 36.29 30.89 55.52 2.33 16.6 6.81 25.25 8.33 40.8.58 9.13-1.44 18.2-11.48 22-22.62 8.93-31.07-22.79-35.38-43.16-2.85-14.06-5-28.49-7-42.18-2.16-14.72-6.19-30.32 14.64-32.98z"/><path d="M168.6 516.47c46.34-3.85 52.22 27.2 51.21 58.57-.19 30-9.9 94.76-7.12 132.08 9.36 66.58 16.17 141.81 1.92 205.66-3.26 15.19-46.7 11.21-48-1.9.11-5.83-1.08-24.5-2.95-44.61-7.46-60.17-7.3-108.27-17.59-165.38-4.72-35.16-10.25-92.73-13.92-118.4-5.01-34.77-5.55-63.24 36.45-66.02z"/><path d="M108.34 516.71c-53.52-5.7-52.18 33.88-53 56.3-.71 25 8.87 107.59 8.58 133.45.15 59.12-4.45 146.45 7.17 199.72 4.37 16.13 47.91 11.29 48-.36 3.4-41.32 12.28-128.51 8.9-175.57.53-22.51 2.6-44.33 5-69.15 3-30.18 6.94-62 9.8-78.81 5.76-33.69 7.4-61.15-34.45-65.58z"/><path class="c" d="M205.64 259.93c37.09 27.85 83 75.63 101.12 124.42 8.62 19.36.3 78.11-29.44 56.78-8.78-7.3-14.34-14.16-15.93-25.73-5.06-11.84-15.42-20.65-23.34-30.7-16.92-19.63-36.15-41.09-55.29-55.71"/><path class="a" d="M229.43 523c11.85-6.72 22.74-19.35 31.07-30.19 3.74-6.66 5.75-14.77 9.23-18.82 10.6-14.46 46.49-49.1 19.51-63.08-25.91-6.58-34.41 43.93-57.82 48.87 14.86 12.05-8.73 29-17.78 36.56 3 8.59 8.91 20.05 15.79 26.66z"/><path d="M238.87 512.94c7.58-7.41 15.79-14.87 21.14-24.21 1.93-5.25 3.92-10.59 7.11-15.27 9.42-13.13 22.22-24.32 27.51-40 4.84-11-1.15-24.31-14.43-20.48-19.1 10.58-24 38-44.54 48 10 14.56-9.56 27.93-19.28 36.44a92 92 0 0 0 9.09 18.1c1.09 2 6.31 8 4.36 6.39-5.81-4.83-13.2-17.23-16.28-25.57 9.11-8.42 32.78-26.22 14.7-37.32 18.42-4.72 25.43-25.73 36.63-39.23 22.08-28.22 54.47-2.81 23 34.93-9 11.52-20.39 21.43-24.81 35.7-8.24 12.21-22.13 26.05-34.44 31.26-.38 0-.47 0-.25-.22 3.21-2.09 5.11-3.59 10.49-8.52z"/><path class="a" d="M242.9 508.16c-4.88 6.58-12.64 13.42-19.69 16.61-3.62 2.12-15.37 4.31-13-2.76 7.05-7.63 18.4-11 24.73-19.82"/><path d="M241.19 513.39c-7.11 7.4-17.06 16.34-28.28 14.36-2.54-.65-5.81-3.6-4.46-6.38 4.32-6.28 12.33-8.69 17.94-13.67 2.53-1.41 5.47-5.92 7.4-6.28-.31 1.64-1.66 3.46-3.11 5.28-3.89 4.76-9.09 8.41-14.08 12-13.82 10 3.07 7.2 9.21 3.12 4.69-1.14 25.41-20.19 15.38-8.43z"/><path class="a" d="M240.88 506a79.09 79.09 0 0 1-14.39 11.44c-8.93 5-17.45 9.43-27.21 9.44-4.28-1-2.4-5.24.65-7 10.76-6.9 24.21-11.06 33.48-20.52"/><path d="M237.9 511.51c-9.42 8-25.31 17.23-39 16.79-6.66-2-3.22-8.87 1.42-11 8.46-4.92 21.45-10.43 27.94-16.07 5.87-5.29 4.72-2.05-.86 3.13a70 70 0 0 1-13.23 9.33c-8.72 3.94-28.11 16.61-4 9.58 10.35-3.15 20.47-8.81 29.17-14.77 5.06-3.5 1.29.79-1.44 3.01z"/><path class="a" d="M237.89 501.15c-12.6 11.26-28.66 17.63-44.37 22.8-12.8 4.16-10.88-5.56-1.55-9.51 12.84-6.45 27.66-10.57 38.71-20.24"/><path d="M233.92 507c-5.27 4.38-53.23 31-51.33 14.29 2.76-9.13 17.34-11.74 25-15.81 8.51-2.35 33.43-21.41 15.9-5.94-10.43 9-26.65 11.86-36.87 21.45-2.35 4.24 8.15.72 9.84.19a190 190 0 0 0 42.28-18.86c.21-.07.36-.1.21.16-1.19 1.57-2.42 2.44-5.03 4.52z"/><path class="a" d="M234.73 495.07c-8.59 9.54-21.52 16.14-33.46 19.23-5.42 1.23-12.18 3.77-17.43 1.64-3.52-2.44 0-6.5 3-7.61 13.51-5.54 29.83-8.36 40.24-19.71"/><path d="M231.31 501.14c-12.53 10.33-29.23 17.1-46 17.56-7.23-.92-4.87-10.53.68-12.24 11-4.38 27.7-8.3 35.76-15.72 2.6-2.24 6-5.08 2.82-.72-7.73 10.37-24.52 14.87-36.93 20.07-9.19 4.84 1.95 5.17 6.21 4.11a101.92 101.92 0 0 0 19.35-5.37c6.93-2.27 17.9-9.47 22.38-12.69.19-.1.35-.14.21.14-.97 1.72-2.03 2.72-4.48 4.86z"/><path class="a" d="M235.59 459.82c-7.66-.39-16.13 1.37-23.55 3.14-17.25 4.42-14.07 17 3.84 10.16 8.06-.92 15.41 6 23.66 5.09 10.33-1.56 7-10.56 1-15.47-1.41-1.49-2.82-3.08-4.95-2.92z"/><path class="a" d="M233 476.32a39.61 39.61 0 0 0-25.06-1c-8.47 1.78-9.52-7.45-2.78-11 8.85-4.95 20.91-3.7 30.74-3.36"/><path d="M228.56 476.89c-7.16-3.08-15.73 0-23.31.15a6.93 6.93 0 0 1-3.78-12.28c6.15-6 16.72-5.93 24.45-6 16.21.32 8.42 1.95-1.87 2.51-5.31.27-26.54 3.72-20.41 12.31 10.81-.42 19.41-2.84 29.16 4-.38.7-2.44-.39-4.24-.69z"/><path class="d" d="M160.59 233.3c101.67 24.8 73.49 178.11 70.22 254.44-3.47 33.27-8.51 58.73-16.43 64.79-19.74 14.28-50.69 17.45-76.82 17.52-26.72-.24-58.19-6-77.27-22.8-8-14.69-5.83-40.43-6.66-62.56 1.89-52.27-1.77-110.38 7.66-162.57 10.19-49.5 44.2-101.33 99.3-88.82z"/><path class="c" d="M68.71 301.83c-11.56 30.22-18.42 67-14.79 101.14 2.74 38.83 36.71 68.1 74.45 50 18.08-8.54 33.54-23 44.47-39.19 8.24-10.61 11.5-20.41-.6-29.74-11.33-8.35-17.72-9.83-28.28-2.33-7.81 4.34-19.39 15-28.32 8.19-2.45-3-1.47-8.93-.28-11.44a168 168 0 0 1 6.11-29.46"/><path class="a" d="M233.92 357c-7.72 5-18.95 14.06-28.17 14.2-9.51 8.6-14.45 20.64-26.2 29.53-13.75 12.27-33.9-5.42-24.64-20.73 8.94-15.29 23.84-25.92 29.83-42.41 8.22 12.81 23.6 5.08 32-1.43A184.86 184.86 0 0 1 233.92 357z"/><path d="M227.23 364.45c-5.78 3.54-12.29 8.78-19.38 8.17-12.63 10.88-19.88 33-39 34.46-7.5-.13-14.66-6.46-17.38-13.29-5-16.19 11.66-27.07 19.83-38.58 3.27-4.82 6.93-10.12 9.89-14.93 1.27-2.36 1.68-5.18 2.5-7.72 7.78 15.88 22 9.21 32.82.73 5.49 5.61 16.73 19.17 17.63 22.44a190.34 190.34 0 0 0-17.35-19.5c-8.15 7.27-22.53 14.49-31.41 4-1.19 4.52-4.67 8-6.91 12.14-6.25 12.06-19.2 20.3-23.25 33.67-2 6.54 2.47 13.14 8.34 15.86 17.63 5.46 29.47-22.28 41.14-31.47v.06c7.64 1.81 45.9-22.42 22.53-6.04z"/><path class="a" d="M224.53 351.27c7.49-4.22 10.13-13.88 16.36-18.81 6.6-.78.85 12-.34 15.3a27.28 27.28 0 0 1-10.8 12.05"/><path d="M225.88 347.84c5.58-4.52 8.26-11.74 13.48-16.59 9.94-4.33 2.78 17.94.49 21.17-2.08 3.22-6.06 8.56-9.3 8.51 4.77-5.44 10.58-14.69 12.22-22.84 2.15-9.07-4.83-.81-6.63 2.21-2.3 3.23-5.8 7-8.23 8.36-2.55 1.72-6.4 2.34-2.03-.82z"/><path class="a" d="M220.78 347.72c9.77-6.09 14.46-19.42 22.57-26.22 12-4.74-1.91 15.47-3.3 19.22a42.45 42.45 0 0 1-13.77 15.35"/><path d="M222.87 343.58c6.7-5 12.28-17.72 19.54-23.66 4.89-3.76 9.1 2.42 6.22 6.89-4 7.13-7 15.06-11.55 21.7-2.5 3-6.9 8.55-10 8.65 1.07-1.67 5.75-6.65 7.65-9.72 4.26-7.23 10-16.28 12.19-24.77-2.88-1.31-5.66 3.38-7.44 5.16-5.18 6.76-11.51 16.85-19.43 18.69-.12-1.05 1.5-1.52 2.82-2.94z"/><path class="a" d="M216.61 343.85c10.89-8.66 15.56-22.76 25.33-32.28 6.12-6.33 13.64-2.31 6.77 5.56-9 11.36-14.76 25.64-26.23 34.79"/><path d="M219 339c8.39-5.81 22.16-43.44 34.45-29.13 1 6.37-6.08 10.6-8.8 15.7-4.27 6.07-8.19 13.81-12.52 19.24-2.77 3.28-5.54 6.85-8.64 8.4.66-2.23 6.53-8.55 8.67-12.58 3.88-6.08 7-12.42 11.6-19.28 1.86-3.37 5.6-6.83 5.72-10.81-4.28-1.23-8.07 4.45-10.75 7.18-6.91 8.37-13.39 21.17-22.82 24.94-.14-1.16 1.59-1.81 3.09-3.66z"/><path class="a" d="M210.93 340.43C222.4 332.77 227.35 319 234.6 308c4.3-7.22 12.66-5.26 8.16 3.79-6.33 13.37-13.45 28.36-26.11 36.82"/><path d="M213.52 335.86c9.37-8 13.57-21 20.85-30.76 2.26-3.21 7.85-4.56 10.82-1.36 4.18 6.59-9.05 22.88-11.93 29.74-2.17 6.47-24.94 26.21-10.52 10.22 2.84-1.92 25.52-39.58 17.32-38.21-10.8 9-15.56 29.57-29.83 33.76-.06-1.17 1.71-1.67 3.29-3.39z"/><path class="a" d="M184.71 341.74c-.75-7.58 5.76-39.41 17.14-30.54 1.19 1.85.64 3.93-.12 5.81-6.37 8.84-.88 19.29.26 29-.25 11.27-9.68 6.2-14.32.64-1.48-1.42-3.09-2.79-2.96-4.91z"/><path class="a" d="M185.84 342.09c-.51-9.69-.27-22.12 6-29.76 4.68-6 13.23-2.89 10.07 4.88a32.34 32.34 0 0 0-1.66 23.94"/><path d="M183.9 338.21c-.15-9.76.44-24.75 10.56-30.28 4.79-2.82 10.29 2.17 9.6 7.26-1.63 7.17-5.39 14.8-3 22 2 10.41-3.25-4.5-3.07-7.86-1.77-5.47 6.56-17.55 1.12-18.44-13.88-1.69-13.7 42.63-15.21 27.32z"/><path class="e" d="M160.54 235.2c34.7 8.2 24.13 42.85-7.49 38.87-32.61-4.63-28.63-50.43 7.49-38.87z"/><path class="e" d="M172.54 197c17.06 5.12 10.54 21.94 7.6 34.65-2.7 16.29-4.25 35.79-26.15 30.49-18.31-2.34-15.56-22-9.93-34.52 5.47-12.62 9.2-37.46 28.48-30.62z"/><path class="a" d="M232.89 177.15c20.74-17.29 20.89 11 10.84 24-3.92 5.56-9.36 12.16-15.9 11.72-6.63-1-7.21-6.24-6.27-10.75"/><path d="M235.94 171.12c31.11-16.69 14.49 46.42-8.61 44.74-6.67-.17-11.13-9-7.71-14.18.69 2.72 1 7.55 4.35 9 12.43 6.51 33.3-31.82 19.87-37.67-4.18-1.6-18.75 6.37-7.9-1.89z"/><path d="M241.54 189.26c1.82-8.14-5.57-3.14-7.75.62-1.82 1.91-1.83 5-3.41 5.73-3.33-8 14.69-25.06 13.71-8.84-.19 1.85-3.28 6.55-2.55 2.49z"/><path class="a" d="M135.8 151.37c-5-9.82-19.31-11.55-20.22 3.24-.36 6.95.46 16.91 6.24 21 5.51 3.15 9 .28 10.87-3.55"/><path d="M131.49 149.63c-19.31-18.9-15.78 36.69-1.19 21.91 3-.62-2.11 10.09-10.42 4.42-7.7-7.18-10.06-22.84-2.81-31.07 5.67-5.35 15.16-1.51 17 5.44.87 3.38-1.26 1.02-2.58-.7z"/><path d="M128.27 161.37c.64-2.9-.38-9.38-4.33-9.61-1.75.49-3.16 5.74-3.25.82a3.83 3.83 0 0 1 2.84-3.42c4.43-.84 8.12 4.19 7.69 8 .5 2.04-3.15 7.94-2.95 4.21z"/><path class="e" d="M186.19 77c60.16-3.07 70.74 76.13 44.79 117-26.93 54.23-101.07 59.12-103.33-11.87-2.11-41.05 8.51-100.32 58.54-105.13z"/><path d="M248.39 178.26c6.54-24 8.13-52.28-.59-76.23-9.47-22.63-32-41.42-56.93-37.76-45.9 2.81-63.34 40.25-70.1 80.94 36.46 8.4 82.15-5 90.73-47.08 5.44 23.97 8.38 70.79 36.89 80.13z"/><path d="M200.38 186.59c9.92 3.36 16.52-17.06 5.82-20.15-9.93-2.57-15.7 17.07-5.82 20.15zm-39.6-12.89c10 3.38 15.6-14.84 5-17.42-10.05-2.61-14.78 14.3-5 17.42zm58.9-18.56l-20-3.91c-4.32-.82 3.61-3.53 11-2.27s13.32 7.04 9 6.18z"/><path d="M214.28 176.44c-2.47-6.53-15.1-11.67-19.2-4.91-1.19-12.22 20.66-6.77 20.65 3.27.36 1.49-1.04 4.2-1.45 1.64zM172.92 164c-1.94-7-14.75-7-19.69-4.05 1.32-8.62 22.05-6.3 21.39 3.3-.13 1.61-2.07 3.19-1.7.75zm1.73-17.47l-20-3.92c-4.32-.83 3.45-2.74 10.88-1.48s13.47 6.23 9.12 5.4zm18.45 10.96c-5.83 10.67-4.08 23-5.24 34.66-2 6.39-10 9.8-15.88 7.15-4.89-2.34 1.13-1.1 3-1.22 4 .06 8.44-2.63 9.71-6.65.57-3.1 0-6 0-9.4-2.29-12.74 12.92-36.35 8.41-24.54zm-12.68 55.16c-7.59 7.06-22.61.54-22-9.39 11.81 16.04 27.51 3.94 22 9.39z"/></svg>