<svg image-rendering="optimizeQuality" shape-rendering="geometricPrecision" viewBox="0 0 140 42" xmlns="http://www.w3.org/2000/svg"><path d="M59.1 13.8c0-1.2-1-2.1-2.3-2.1-1.2 0-2.2 1-2.2 2.1s1 2.1 2.2 2.1 2.3-.9 2.3-2.1m-.2 17.4V17.8h-4.1v13.4zm12-.7l-1.3-3c-.4.3-1.1.5-1.8.5-1.4 0-2.5-1.4-2.5-3.6 0-2.3 1-3.6 2.5-3.6.7 0 1.3.2 1.8.5l1.3-2.9c-.9-.6-1.9-.9-3.7-.9-3.3 0-6.1 2.3-6.1 7s2.8 7 6.1 7c1.8 0 2.8-.4 3.7-1m13.3-6.7c0-3.7-2.1-6.3-6-6.3-4 0-6.4 2.9-6.4 7 0 4 2.3 7 6.9 7 2 0 4-.4 5.2-1l-1.1-3c-1 .5-2.4.8-3.8.8-1.7 0-2.9-.7-3.3-2.2L84 25c.2-.4.2-.8.2-1.2m-3.9-.8l-4.7.6c0-2.2 1.1-3.2 2.6-3.2 1.3 0 2.1.9 2.1 2.6m16.8 8.2V18.5c-1-.6-2.6-.9-4.2-.9-3.7 0-6.4 2.1-6.4 6.8 0 4.1 2.4 6.4 5.7 6.4 1 0 2.2-.3 2.9-.6v1.1c0 2.4-1.2 3.8-3.6 3.8-1.4 0-2.8-.4-3.7-.9l-.6 1.6c1 .5 2.7 1 4.5 1 3.4 0 5.4-2.1 5.4-5.6m-2-2.7c-.6.3-1.6.5-2.5.5-2.3 0-4-1.6-4-4.8 0-3.6 1.9-5 4.2-5 .9 0 1.8.2 2.3.4zm11.8-10.9c-.4-.1-.8-.1-1.3-.1-1.8 0-3.7.4-4.9.9v12.7h2.1V19.7c.6-.3 1.6-.4 2.5-.4.4 0 .8 0 1.2.1zM118 30.5v-8.6c0-3.2-2-4.4-5-4.4-1.7 0-3.4.5-4.4.9l.5 1.4c.9-.4 2.4-.8 3.7-.8 1.9 0 3.2.6 3.2 2.6v1c-4 .2-8.2.8-8.2 4.6 0 2.5 1.8 4.1 5.5 4.1 1.8.1 3.7-.3 4.7-.8m-2-1c-.5.2-1.7.4-2.7.4-2.3 0-3.5-1-3.5-2.6 0-2.8 3.2-3 6.2-3.1zm22.7 1.7v-9.4c0-2.6-1.8-4.3-4.6-4.3-1.9 0-3.5.8-4.4 1.5-.7-.8-2.2-1.5-4.3-1.5-1.7 0-3.3.4-4.6.9v12.7h2.1V19.7c.7-.3 1.6-.5 2.7-.5 1.9 0 3.1.9 3.1 2.4v9.5h2.1V20.4c.7-.7 1.7-1.1 2.9-1.1 1.7 0 2.9 1 2.9 2.8v9.2z" fill="#373435"/><path clip-rule="evenodd" d="M21.3 1c-11.1 0-20 9-20 20s9 20 20 20 20-9 20-20-8.9-20-20-20m0 6.3C13.8 7.3 7.7 13.4 7.7 21c0 2.6.7 4.9 1.9 7l-1.3 5.8c-.1.4.4.8.7.8l6-1.4c1.9 1 4.1 1.6 6.4 1.6C28.9 34.7 35 28.6 35 21S28.9 7.3 21.3 7.3m-5.6 7.5H27c.5 0 .9.4.9.9s-.4.9-.9.9H15.7c-.5 0-.9-.4-.9-.9s.4-.9.9-.9m0 5.4H27c.5 0 .9.4.9.9s-.4.9-.9.9H15.7c-.5 0-.9-.4-.9-.9s.4-.9.9-.9m0 5.4H27c.5 0 .9.4.9.9s-.4.9-.9.9H15.7c-.5 0-.9-.4-.9-.9s.4-.9.9-.9" fill="#32009d" fill-rule="evenodd"/></svg>